<svg width="193" height="33" viewBox="0 0 193 33" fill="none" xmlns="http://www.w3.org/2000/svg">
<path d="M192.975 20.4292C192.975 22.0529 192.667 23.5786 192.051 25.0063C191.435 26.4341 190.595 27.6868 189.531 28.7646C188.467 29.8285 187.222 30.6753 185.794 31.3052C184.366 31.9211 182.84 32.236 181.217 32.25H165.092V0H169.396V27.9458H181.217C182.253 27.9458 183.218 27.7498 184.114 27.3579C185.024 26.952 185.815 26.4131 186.487 25.7412C187.159 25.0553 187.691 24.2575 188.083 23.3477C188.474 22.4378 188.67 21.465 188.67 20.4292C188.67 19.3934 188.474 18.4206 188.083 17.5107C187.691 16.6009 187.159 15.8101 186.487 15.1382C185.815 14.4523 185.024 13.9134 184.114 13.5215C183.218 13.1156 182.253 12.9056 181.217 12.8916H171.559V8.6084H181.217C182.84 8.6084 184.366 8.92334 185.794 9.55322C187.222 10.1691 188.467 11.016 189.531 12.0938C190.595 13.1576 191.435 14.4103 192.051 15.8521C192.667 17.2798 192.975 18.8055 192.975 20.4292Z" fill="black"/>
<path d="M158.899 32.25H142.774C141.15 32.25 139.625 31.9421 138.197 31.3262C136.769 30.6963 135.523 29.8494 134.459 28.7856C133.41 27.7078 132.577 26.4551 131.961 25.0273C131.345 23.5856 131.037 22.0529 131.037 20.4292V8.6084H135.341V20.4292C135.341 21.465 135.53 22.4378 135.908 23.3477C136.3 24.2435 136.832 25.0343 137.504 25.7202C138.176 26.3921 138.96 26.931 139.855 27.3369C140.765 27.7288 141.738 27.9318 142.774 27.9458H154.595V8.6084H158.899V32.25Z" fill="black"/>
<path d="M124.843 32.25H120.539V19.3584H99.5005V15.0542H120.539V2.1416H124.843V32.25ZM97.3589 32.25H93.0547V2.1416H97.3589V32.25Z" fill="black"/>
<path d="M120.539 32.25H124.843V2.1416H120.539V15.0542H99.5005V19.3584H120.539V32.25Z" fill="#005EB8"/>
<path d="M89.9678 32.25H83.8159L71.2603 22.1509L66.2632 26.2241V32.25H61.959V0H66.2632V21.668L81.9263 8.6084H87.7632L74.3887 19.5684L89.9678 32.25Z" fill="black"/>
<path d="M58.2217 32.25H57.1509C56.1011 32.25 55.1213 32.054 54.2114 31.6621C53.3016 31.2702 52.5037 30.7383 51.8179 30.0664C51.132 29.3805 50.5931 28.5827 50.2012 27.6729C49.8092 26.749 49.6133 25.7692 49.6133 24.7334V0H53.9175V24.7334C53.9175 25.1813 54.0015 25.6012 54.1694 25.9932C54.3374 26.3711 54.5684 26.707 54.8623 27.001C55.1562 27.2949 55.4992 27.5259 55.8911 27.6938C56.283 27.8618 56.703 27.9458 57.1509 27.9458H58.2217V32.25Z" fill="black"/>
<path d="M44.6587 3.2334C44.6587 3.68132 44.5747 4.10124 44.4067 4.49316C44.2388 4.87109 44.0078 5.20703 43.7139 5.50098C43.4199 5.79492 43.077 6.02588 42.6851 6.19385C42.2931 6.36182 41.8802 6.4458 41.4463 6.4458C40.9984 6.4458 40.5785 6.36182 40.1865 6.19385C39.7946 6.02588 39.4517 5.79492 39.1577 5.50098C38.8638 5.20703 38.6328 4.87109 38.4648 4.49316C38.2969 4.10124 38.2129 3.68132 38.2129 3.2334C38.2129 2.79948 38.2969 2.38656 38.4648 1.99463C38.6328 1.6027 38.8638 1.25977 39.1577 0.96582C39.4517 0.671875 39.7946 0.440918 40.1865 0.272949C40.5785 0.0909831 40.9984 0 41.4463 0C41.8802 0 42.2931 0.0909831 42.6851 0.272949C43.077 0.440918 43.4199 0.671875 43.7139 0.96582C44.0078 1.25977 44.2388 1.6027 44.4067 1.99463C44.5747 2.38656 44.6587 2.79948 44.6587 3.2334ZM43.5879 32.25H39.2837V8.6084H43.5879V32.25Z" fill="black"/>
<path d="M34.7485 23.6416C34.7485 24.8454 34.5246 25.9722 34.0767 27.022C33.6287 28.0578 33.0129 28.9676 32.229 29.7515C31.4591 30.5213 30.5493 31.1302 29.4995 31.5781C28.4637 32.026 27.3509 32.25 26.1611 32.25H0V27.9458H26.1611C26.763 27.9458 27.3229 27.8338 27.8408 27.6099C28.3587 27.3859 28.8066 27.078 29.1846 26.686C29.5765 26.2941 29.8844 25.8392 30.1084 25.3213C30.3324 24.7894 30.4443 24.2295 30.4443 23.6416C30.4443 23.0537 30.3324 22.5008 30.1084 21.9829C29.8844 21.465 29.5765 21.0101 29.1846 20.6182C28.8066 20.2262 28.3587 19.9183 27.8408 19.6943C27.3229 19.4704 26.763 19.3584 26.1611 19.3584H8.6084C7.43262 19.3584 6.31982 19.1344 5.27002 18.6865C4.22021 18.2386 3.30339 17.6297 2.51953 16.8599C1.74967 16.076 1.13379 15.1592 0.671875 14.1094C0.223958 13.0596 0 11.9398 0 10.75C0 9.57422 0.223958 8.46143 0.671875 7.41162C1.13379 6.36182 1.74967 5.45199 2.51953 4.68213C3.30339 3.89827 4.22021 3.28239 5.27002 2.83447C6.31982 2.37256 7.43262 2.1416 8.6084 2.1416H32.6069V6.4458H8.6084C8.02051 6.4458 7.46061 6.55778 6.92871 6.78174C6.41081 7.0057 5.95589 7.31364 5.56396 7.70557C5.17204 8.09749 4.8641 8.55941 4.64014 9.09131C4.41618 9.60921 4.3042 10.1621 4.3042 10.75C4.3042 11.3379 4.41618 11.8978 4.64014 12.4297C4.8641 12.9476 5.17204 13.4025 5.56396 13.7944C5.95589 14.1864 6.41081 14.4943 6.92871 14.7183C7.46061 14.9422 8.02051 15.0542 8.6084 15.0542H26.1611C27.3509 15.0542 28.4637 15.2852 29.4995 15.7471C30.5493 16.195 31.4591 16.8109 32.229 17.5947C33.0129 18.3646 33.6287 19.2744 34.0767 20.3242C34.5246 21.36 34.7485 22.4658 34.7485 23.6416Z" fill="black"/>
</svg>
